# xmcd
#
# Track frame offsets:
#	150
#	18199
#	33885
#	51873
#	68537
#
# Disc length: 1076 seconds
#
# Revision: 1
# Processed by: cddbd v1.5.2PL0 Copyright (c) Steve Scherf et al.
# Submitted via: audiograbber 1.83.01
#
DISCID=31043205
DTITLE=The New Black 7 - The Old Becomes New
DYEAR=2011
DGENRE=Country
TTITLE0=Small Town Song
TTITLE1=Kick The Tires
TTITLE2=That Ain't Love
TTITLE3=Come On Come On
TTITLE4=Here All Alone
EXTD=
EXTT0=
EXTT1=
EXTT2=
EXTT3=
EXTT4=
PLAYORDER=
